<svg xmlns="http://www.w3.org/2000/svg" xmlns:xlink="http://www.w3.org/1999/xlink" width="1024" zoomAndPan="magnify" viewBox="0 0 768 767.999994" height="1024" preserveAspectRatio="xMidYMid meet" version="1.0"><path  d="M 107.527344 5.675781 L 41.691406 6.191406 C 40.441406 6.183594 39.195312 6.238281 37.949219 6.355469 C 36.707031 6.472656 35.472656 6.652344 34.246094 6.890625 C 33.019531 7.128906 31.808594 7.425781 30.613281 7.785156 C 29.417969 8.144531 28.242188 8.5625 27.085938 9.035156 C 25.929688 9.511719 24.800781 10.042969 23.699219 10.628906 C 22.597656 11.214844 21.527344 11.855469 20.488281 12.550781 C 19.449219 13.242188 18.445312 13.984375 17.480469 14.777344 C 16.515625 15.570312 15.589844 16.40625 14.707031 17.289062 C 13.824219 18.175781 12.988281 19.101562 12.199219 20.066406 C 11.40625 21.03125 10.664062 22.035156 9.972656 23.074219 C 9.28125 24.117188 8.644531 25.1875 8.058594 26.289062 C 7.472656 27.394531 6.945312 28.523438 6.46875 29.679688 C 5.996094 30.835938 5.582031 32.011719 5.222656 33.207031 C 4.867188 34.40625 4.570312 35.617188 4.332031 36.84375 C 4.09375 38.070312 3.917969 39.304688 3.804688 40.546875 C 3.6875 41.792969 3.636719 43.039062 3.644531 44.285156 C 3.652344 45.535156 3.722656 46.78125 3.855469 48.023438 C 3.988281 49.265625 4.179688 50.496094 4.433594 51.71875 C 4.6875 52.941406 5 54.148438 5.375 55.34375 C 5.75 56.535156 6.179688 57.703125 6.667969 58.855469 C 7.160156 60.003906 7.703125 61.125 8.304688 62.21875 C 8.90625 63.316406 9.558594 64.378906 10.261719 65.410156 C 10.96875 66.4375 11.722656 67.433594 12.527344 68.386719 C 13.332031 69.34375 14.183594 70.257812 15.078125 71.128906 C 15.972656 72 16.90625 72.824219 17.882812 73.605469 C 18.859375 74.382812 19.871094 75.113281 20.917969 75.789062 C 21.96875 76.46875 23.046875 77.09375 24.15625 77.667969 C 25.269531 78.238281 26.40625 78.753906 27.566406 79.210938 C 28.726562 79.671875 29.910156 80.074219 31.109375 80.414062 C 32.3125 80.757812 33.527344 81.039062 34.753906 81.261719 C 35.984375 81.484375 37.222656 81.644531 38.464844 81.742188 C 39.710938 81.84375 40.957031 81.882812 42.207031 81.855469 L 82.699219 81.5625 L 207.28125 380.527344 L 161.984375 452.941406 C 130.269531 503.589844 168.835938 573.164062 228.5625 573.164062 L 646.9375 573.164062 C 648.1875 573.179688 649.433594 573.136719 650.679688 573.03125 C 651.925781 572.921875 653.164062 572.757812 654.394531 572.527344 C 655.621094 572.296875 656.835938 572.011719 658.039062 571.660156 C 659.238281 571.3125 660.417969 570.902344 661.578125 570.4375 C 662.738281 569.972656 663.871094 569.449219 664.980469 568.871094 C 666.089844 568.292969 667.167969 567.660156 668.210938 566.972656 C 669.257812 566.289062 670.265625 565.554688 671.238281 564.765625 C 672.214844 563.980469 673.144531 563.148438 674.035156 562.273438 C 674.925781 561.394531 675.769531 560.476562 676.570312 559.511719 C 677.367188 558.550781 678.117188 557.554688 678.816406 556.515625 C 679.519531 555.480469 680.164062 554.414062 680.757812 553.3125 C 681.355469 552.210938 681.890625 551.085938 682.375 549.933594 C 682.859375 548.777344 683.28125 547.605469 683.648438 546.410156 C 684.015625 545.214844 684.320312 544.003906 684.566406 542.777344 C 684.8125 541.550781 684.996094 540.316406 685.121094 539.070312 C 685.246094 537.828125 685.304688 536.582031 685.304688 535.328125 C 685.304688 534.078125 685.246094 532.832031 685.121094 531.589844 C 684.996094 530.34375 684.8125 529.109375 684.566406 527.882812 C 684.320312 526.65625 684.015625 525.445312 683.648438 524.25 C 683.28125 523.054688 682.859375 521.882812 682.375 520.726562 C 681.890625 519.574219 681.355469 518.445312 680.757812 517.347656 C 680.164062 516.246094 679.519531 515.179688 678.816406 514.144531 C 678.117188 513.105469 677.367188 512.109375 676.570312 511.148438 C 675.769531 510.183594 674.925781 509.265625 674.035156 508.386719 C 673.144531 507.507812 672.214844 506.679688 671.238281 505.890625 C 670.265625 505.105469 669.257812 504.371094 668.210938 503.6875 C 667.167969 503 666.089844 502.367188 664.980469 501.789062 C 663.871094 501.210938 662.738281 500.6875 661.578125 500.222656 C 660.417969 499.757812 659.238281 499.347656 658.039062 499 C 656.835938 498.648438 655.621094 498.359375 654.394531 498.132812 C 653.164062 497.902344 651.925781 497.734375 650.679688 497.628906 C 649.433594 497.523438 648.1875 497.480469 646.9375 497.496094 L 228.5625 497.496094 C 224.351562 497.496094 223.867188 496.667969 226.125 493.0625 C 226.148438 493.0625 226.171875 493.0625 226.195312 493.0625 L 270.679688 421.832031 L 553.167969 421.832031 C 580.632812 421.832031 605.984375 406.914062 619.300781 382.890625 L 755.554688 137.496094 C 769.59375 112.300781 751.355469 81.339844 722.527344 81.339844 L 164.570312 81.339844 L 142.773438 28.949219 C 142.054688 27.222656 141.210938 25.558594 140.242188 23.957031 C 139.277344 22.355469 138.199219 20.835938 137.003906 19.394531 C 135.8125 17.953125 134.519531 16.605469 133.128906 15.359375 C 131.738281 14.109375 130.261719 12.96875 128.699219 11.9375 C 127.140625 10.90625 125.511719 9.996094 123.816406 9.207031 C 122.121094 8.417969 120.375 7.757812 118.582031 7.226562 C 116.785156 6.695312 114.964844 6.300781 113.113281 6.042969 C 111.257812 5.78125 109.398438 5.660156 107.527344 5.675781 Z M 230.777344 610.996094 C 229.539062 610.996094 228.300781 611.027344 227.066406 611.085938 C 225.828125 611.148438 224.59375 611.238281 223.363281 611.359375 C 222.128906 611.480469 220.902344 611.632812 219.675781 611.8125 C 218.449219 611.996094 217.230469 612.207031 216.015625 612.449219 C 214.800781 612.691406 213.59375 612.960938 212.394531 613.261719 C 211.191406 613.5625 210 613.894531 208.8125 614.253906 C 207.628906 614.613281 206.453125 615 205.289062 615.417969 C 204.121094 615.835938 202.964844 616.28125 201.824219 616.753906 C 200.679688 617.230469 199.546875 617.730469 198.425781 618.261719 C 197.308594 618.789062 196.203125 619.347656 195.109375 619.929688 C 194.019531 620.511719 192.941406 621.125 191.878906 621.761719 C 190.816406 622.398438 189.769531 623.058594 188.742188 623.746094 C 187.710938 624.433594 186.699219 625.148438 185.703125 625.886719 C 184.710938 626.621094 183.734375 627.382812 182.777344 628.171875 C 181.820312 628.957031 180.882812 629.765625 179.964844 630.597656 C 179.046875 631.425781 178.152344 632.28125 177.273438 633.15625 C 176.398438 634.03125 175.546875 634.929688 174.714844 635.847656 C 173.882812 636.765625 173.074219 637.703125 172.289062 638.660156 C 171.503906 639.617188 170.742188 640.589844 170.003906 641.585938 C 169.265625 642.582031 168.554688 643.59375 167.863281 644.621094 C 167.175781 645.652344 166.515625 646.699219 165.878906 647.761719 C 165.242188 648.824219 164.632812 649.898438 164.046875 650.992188 C 163.464844 652.082031 162.90625 653.191406 162.378906 654.308594 C 161.847656 655.429688 161.347656 656.558594 160.871094 657.703125 C 160.398438 658.847656 159.953125 660.003906 159.535156 661.167969 C 159.121094 662.335938 158.730469 663.511719 158.371094 664.695312 C 158.011719 665.878906 157.683594 667.074219 157.382812 668.273438 C 157.078125 669.476562 156.808594 670.683594 156.566406 671.898438 C 156.324219 673.113281 156.113281 674.332031 155.933594 675.558594 C 155.75 676.78125 155.597656 678.011719 155.476562 679.242188 C 155.355469 680.476562 155.265625 681.710938 155.203125 682.949219 C 155.144531 684.183594 155.113281 685.421875 155.113281 686.660156 C 155.113281 687.898438 155.144531 689.136719 155.203125 690.371094 C 155.265625 691.609375 155.355469 692.84375 155.476562 694.078125 C 155.597656 695.308594 155.75 696.539062 155.933594 697.761719 C 156.113281 698.988281 156.324219 700.207031 156.566406 701.421875 C 156.808594 702.636719 157.078125 703.84375 157.382812 705.046875 C 157.683594 706.246094 158.011719 707.4375 158.371094 708.625 C 158.730469 709.808594 159.121094 710.984375 159.535156 712.152344 C 159.953125 713.316406 160.398438 714.472656 160.871094 715.617188 C 161.347656 716.761719 161.847656 717.890625 162.378906 719.011719 C 162.90625 720.128906 163.464844 721.234375 164.046875 722.328125 C 164.632812 723.421875 165.242188 724.496094 165.878906 725.558594 C 166.515625 726.621094 167.175781 727.667969 167.863281 728.695312 C 168.554688 729.726562 169.265625 730.738281 170.003906 731.734375 C 170.742188 732.726562 171.503906 733.703125 172.289062 734.660156 C 173.074219 735.617188 173.882812 736.554688 174.714844 737.472656 C 175.546875 738.390625 176.398438 739.289062 177.273438 740.164062 C 178.152344 741.039062 179.046875 741.890625 179.964844 742.722656 C 180.882812 743.554688 181.820312 744.363281 182.777344 745.148438 C 183.734375 745.933594 184.710938 746.695312 185.703125 747.433594 C 186.699219 748.171875 187.710938 748.886719 188.742188 749.574219 C 189.769531 750.261719 190.816406 750.921875 191.878906 751.558594 C 192.941406 752.195312 194.019531 752.808594 195.109375 753.390625 C 196.203125 753.972656 197.308594 754.53125 198.425781 755.058594 C 199.546875 755.589844 200.679688 756.089844 201.824219 756.566406 C 202.964844 757.039062 204.121094 757.484375 205.289062 757.902344 C 206.453125 758.320312 207.628906 758.707031 208.8125 759.066406 C 210 759.425781 211.191406 759.757812 212.394531 760.058594 C 213.59375 760.359375 214.800781 760.628906 216.015625 760.871094 C 217.230469 761.113281 218.449219 761.324219 219.675781 761.507812 C 220.902344 761.6875 222.128906 761.839844 223.363281 761.960938 C 224.59375 762.082031 225.828125 762.171875 227.066406 762.234375 C 228.300781 762.292969 229.539062 762.324219 230.777344 762.324219 C 232.015625 762.324219 233.253906 762.292969 234.492188 762.234375 C 235.726562 762.171875 236.960938 762.082031 238.195312 761.960938 C 239.425781 761.839844 240.65625 761.6875 241.878906 761.507812 C 243.105469 761.324219 244.324219 761.113281 245.539062 760.871094 C 246.753906 760.628906 247.960938 760.359375 249.164062 760.058594 C 250.363281 759.757812 251.558594 759.425781 252.742188 759.066406 C 253.925781 758.707031 255.101562 758.320312 256.269531 757.902344 C 257.433594 757.484375 258.589844 757.039062 259.734375 756.566406 C 260.878906 756.089844 262.011719 755.589844 263.128906 755.058594 C 264.25 754.53125 265.355469 753.972656 266.445312 753.390625 C 267.539062 752.808594 268.617188 752.195312 269.679688 751.558594 C 270.738281 750.921875 271.785156 750.261719 272.816406 749.574219 C 273.84375 748.886719 274.855469 748.171875 275.851562 747.433594 C 276.847656 746.695312 277.824219 745.933594 278.78125 745.148438 C 279.738281 744.363281 280.675781 743.554688 281.589844 742.722656 C 282.507812 741.890625 283.40625 741.039062 284.28125 740.164062 C 285.15625 739.289062 286.011719 738.390625 286.84375 737.472656 C 287.675781 736.554688 288.484375 735.617188 289.269531 734.660156 C 290.054688 733.703125 290.816406 732.726562 291.554688 731.734375 C 292.289062 730.738281 293.003906 729.726562 293.691406 728.695312 C 294.378906 727.667969 295.042969 726.621094 295.679688 725.558594 C 296.316406 724.496094 296.925781 723.421875 297.507812 722.328125 C 298.09375 721.234375 298.648438 720.128906 299.179688 719.011719 C 299.707031 717.890625 300.210938 716.761719 300.683594 715.617188 C 301.15625 714.472656 301.601562 713.316406 302.019531 712.152344 C 302.4375 710.984375 302.824219 709.808594 303.183594 708.625 C 303.542969 707.4375 303.875 706.246094 304.175781 705.046875 C 304.476562 703.84375 304.746094 702.636719 304.988281 701.421875 C 305.230469 700.207031 305.441406 698.988281 305.625 697.761719 C 305.804688 696.539062 305.957031 695.308594 306.078125 694.078125 C 306.199219 692.84375 306.292969 691.609375 306.351562 690.371094 C 306.414062 689.136719 306.441406 687.898438 306.441406 686.660156 C 306.441406 685.421875 306.414062 684.183594 306.351562 682.949219 C 306.292969 681.710938 306.199219 680.476562 306.078125 679.242188 C 305.957031 678.011719 305.804688 676.78125 305.625 675.558594 C 305.441406 674.332031 305.230469 673.113281 304.988281 671.898438 C 304.746094 670.683594 304.476562 669.476562 304.175781 668.273438 C 303.875 667.074219 303.542969 665.878906 303.183594 664.695312 C 302.824219 663.511719 302.4375 662.335938 302.019531 661.167969 C 301.601562 660.003906 301.15625 658.847656 300.683594 657.703125 C 300.210938 656.558594 299.707031 655.429688 299.179688 654.308594 C 298.648438 653.191406 298.09375 652.082031 297.507812 650.992188 C 296.925781 649.898438 296.316406 648.824219 295.679688 647.761719 C 295.042969 646.699219 294.378906 645.652344 293.691406 644.621094 C 293.003906 643.59375 292.289062 642.582031 291.554688 641.585938 C 290.816406 640.589844 290.054688 639.617188 289.269531 638.660156 C 288.484375 637.703125 287.675781 636.765625 286.84375 635.847656 C 286.011719 634.929688 285.15625 634.03125 284.28125 633.15625 C 283.40625 632.28125 282.507812 631.425781 281.59375 630.597656 C 280.675781 629.765625 279.738281 628.957031 278.78125 628.171875 C 277.824219 627.382812 276.847656 626.621094 275.851562 625.886719 C 274.855469 625.148438 273.84375 624.433594 272.816406 623.746094 C 271.785156 623.058594 270.738281 622.394531 269.679688 621.761719 C 268.617188 621.125 267.539062 620.511719 266.445312 619.929688 C 265.355469 619.34375 264.25 618.789062 263.128906 618.257812 C 262.011719 617.730469 260.878906 617.226562 259.734375 616.753906 C 258.589844 616.28125 257.433594 615.835938 256.269531 615.417969 C 255.101562 615 253.925781 614.613281 252.742188 614.253906 C 251.558594 613.894531 250.363281 613.5625 249.164062 613.261719 C 247.960938 612.960938 246.753906 612.691406 245.539062 612.449219 C 244.324219 612.207031 243.105469 611.996094 241.878906 611.8125 C 240.65625 611.632812 239.425781 611.480469 238.195312 611.359375 C 236.960938 611.238281 235.726562 611.148438 234.492188 611.085938 C 233.253906 611.027344 232.015625 610.996094 230.777344 610.996094 Z M 609.101562 610.996094 C 607.863281 610.996094 606.628906 611.027344 605.390625 611.085938 C 604.152344 611.148438 602.917969 611.238281 601.6875 611.359375 C 600.453125 611.480469 599.226562 611.632812 598 611.8125 C 596.777344 611.996094 595.554688 612.207031 594.34375 612.449219 C 593.128906 612.691406 591.917969 612.960938 590.71875 613.261719 C 589.515625 613.5625 588.324219 613.894531 587.140625 614.253906 C 585.953125 614.613281 584.777344 615 583.613281 615.417969 C 582.445312 615.835938 581.292969 616.28125 580.148438 616.753906 C 579.003906 617.230469 577.871094 617.730469 576.753906 618.261719 C 575.632812 618.789062 574.527344 619.347656 573.433594 619.929688 C 572.34375 620.511719 571.265625 621.125 570.203125 621.761719 C 569.140625 622.398438 568.097656 623.058594 567.066406 623.746094 C 566.035156 624.433594 565.023438 625.148438 564.03125 625.886719 C 563.035156 626.621094 562.058594 627.382812 561.101562 628.171875 C 560.144531 628.957031 559.207031 629.765625 558.289062 630.597656 C 557.371094 631.425781 556.476562 632.28125 555.601562 633.15625 C 554.722656 634.03125 553.871094 634.929688 553.039062 635.847656 C 552.207031 636.765625 551.398438 637.703125 550.613281 638.660156 C 549.828125 639.617188 549.066406 640.589844 548.328125 641.585938 C 547.589844 642.582031 546.878906 643.59375 546.191406 644.621094 C 545.503906 645.652344 544.839844 646.699219 544.203125 647.761719 C 543.566406 648.824219 542.957031 649.898438 542.371094 650.992188 C 541.789062 652.082031 541.234375 653.191406 540.703125 654.308594 C 540.171875 655.429688 539.671875 656.558594 539.199219 657.703125 C 538.722656 658.847656 538.277344 660.003906 537.863281 661.167969 C 537.445312 662.335938 537.054688 663.511719 536.695312 664.695312 C 536.335938 665.878906 536.007812 667.074219 535.707031 668.273438 C 535.40625 669.476562 535.132812 670.683594 534.890625 671.898438 C 534.652344 673.113281 534.4375 674.332031 534.257812 675.558594 C 534.074219 676.78125 533.925781 678.011719 533.800781 679.242188 C 533.679688 680.476562 533.589844 681.710938 533.53125 682.949219 C 533.46875 684.183594 533.4375 685.421875 533.4375 686.660156 C 533.4375 687.898438 533.46875 689.136719 533.53125 690.371094 C 533.589844 691.609375 533.679688 692.84375 533.800781 694.078125 C 533.925781 695.308594 534.074219 696.539062 534.257812 697.761719 C 534.4375 698.988281 534.652344 700.207031 534.890625 701.421875 C 535.132812 702.636719 535.40625 703.84375 535.707031 705.046875 C 536.007812 706.246094 536.335938 707.4375 536.695312 708.625 C 537.054688 709.808594 537.445312 710.984375 537.863281 712.152344 C 538.277344 713.316406 538.722656 714.472656 539.199219 715.617188 C 539.671875 716.761719 540.171875 717.890625 540.703125 719.011719 C 541.234375 720.128906 541.789062 721.234375 542.371094 722.328125 C 542.957031 723.421875 543.566406 724.496094 544.203125 725.558594 C 544.839844 726.621094 545.503906 727.667969 546.191406 728.695312 C 546.878906 729.726562 547.589844 730.738281 548.328125 731.734375 C 549.066406 732.726562 549.828125 733.703125 550.613281 734.660156 C 551.398438 735.617188 552.207031 736.554688 553.039062 737.472656 C 553.871094 738.390625 554.722656 739.289062 555.601562 740.164062 C 556.476562 741.039062 557.371094 741.890625 558.289062 742.722656 C 559.207031 743.554688 560.144531 744.363281 561.101562 745.148438 C 562.058594 745.933594 563.035156 746.695312 564.03125 747.433594 C 565.023438 748.171875 566.035156 748.886719 567.066406 749.574219 C 568.097656 750.261719 569.140625 750.921875 570.203125 751.558594 C 571.265625 752.195312 572.34375 752.808594 573.433594 753.390625 C 574.527344 753.972656 575.632812 754.53125 576.753906 755.058594 C 577.871094 755.589844 579.003906 756.089844 580.148438 756.566406 C 581.292969 757.039062 582.445312 757.484375 583.613281 757.902344 C 584.777344 758.320312 585.953125 758.707031 587.140625 759.066406 C 588.324219 759.425781 589.515625 759.757812 590.71875 760.058594 C 591.917969 760.359375 593.128906 760.628906 594.34375 760.871094 C 595.554688 761.113281 596.777344 761.324219 598 761.507812 C 599.226562 761.6875 600.453125 761.839844 601.6875 761.960938 C 602.917969 762.082031 604.152344 762.171875 605.390625 762.234375 C 606.628906 762.292969 607.863281 762.324219 609.101562 762.324219 C 610.339844 762.324219 611.578125 762.292969 612.816406 762.234375 C 614.054688 762.171875 615.289062 762.082031 616.519531 761.960938 C 617.753906 761.839844 618.980469 761.6875 620.207031 761.507812 C 621.429688 761.324219 622.652344 761.113281 623.863281 760.871094 C 625.078125 760.628906 626.289062 760.359375 627.488281 760.058594 C 628.691406 759.757812 629.882812 759.425781 631.066406 759.066406 C 632.253906 758.707031 633.429688 758.320312 634.59375 757.902344 C 635.761719 757.484375 636.914062 757.039062 638.058594 756.566406 C 639.203125 756.089844 640.335938 755.589844 641.453125 755.058594 C 642.574219 754.53125 643.679688 753.972656 644.773438 753.390625 C 645.863281 752.808594 646.941406 752.195312 648.003906 751.558594 C 649.066406 750.921875 650.109375 750.261719 651.140625 749.574219 C 652.171875 748.886719 653.183594 748.171875 654.175781 747.433594 C 655.171875 746.695312 656.148438 745.933594 657.105469 745.148438 C 658.0625 744.363281 659 743.554688 659.917969 742.722656 C 660.835938 741.890625 661.730469 741.039062 662.605469 740.164062 C 663.480469 739.289062 664.335938 738.390625 665.167969 737.472656 C 666 736.554688 666.808594 735.617188 667.59375 734.660156 C 668.378906 733.703125 669.140625 732.726562 669.878906 731.734375 C 670.617188 730.738281 671.328125 729.726562 672.015625 728.695312 C 672.703125 727.667969 673.367188 726.621094 674.003906 725.558594 C 674.640625 724.496094 675.25 723.421875 675.832031 722.328125 C 676.417969 721.234375 676.972656 720.128906 677.503906 719.011719 C 678.03125 717.890625 678.535156 716.761719 679.007812 715.617188 C 679.484375 714.472656 679.929688 713.316406 680.34375 712.152344 C 680.761719 710.984375 681.152344 709.808594 681.511719 708.625 C 681.871094 707.4375 682.199219 706.246094 682.5 705.046875 C 682.800781 703.84375 683.074219 702.636719 683.316406 701.421875 C 683.554688 700.207031 683.769531 698.988281 683.949219 697.761719 C 684.132812 696.539062 684.28125 695.308594 684.402344 694.078125 C 684.527344 692.84375 684.617188 691.609375 684.675781 690.371094 C 684.738281 689.136719 684.769531 687.898438 684.769531 686.660156 C 684.769531 685.421875 684.738281 684.183594 684.675781 682.949219 C 684.617188 681.710938 684.527344 680.476562 684.402344 679.242188 C 684.28125 678.011719 684.132812 676.78125 683.949219 675.558594 C 683.769531 674.332031 683.554688 673.113281 683.316406 671.898438 C 683.074219 670.683594 682.800781 669.476562 682.5 668.273438 C 682.199219 667.074219 681.871094 665.878906 681.511719 664.695312 C 681.152344 663.511719 680.761719 662.335938 680.34375 661.167969 C 679.929688 660.003906 679.484375 658.847656 679.007812 657.703125 C 678.535156 656.558594 678.03125 655.429688 677.503906 654.308594 C 676.972656 653.191406 676.417969 652.082031 675.832031 650.992188 C 675.25 649.898438 674.640625 648.824219 674.003906 647.761719 C 673.367188 646.699219 672.703125 645.652344 672.015625 644.621094 C 671.328125 643.59375 670.617188 642.582031 669.878906 641.585938 C 669.140625 640.589844 668.378906 639.617188 667.59375 638.660156 C 666.808594 637.703125 666 636.765625 665.167969 635.847656 C 664.335938 634.929688 663.480469 634.03125 662.605469 633.15625 C 661.730469 632.28125 660.835938 631.425781 659.917969 630.597656 C 659 629.765625 658.0625 628.957031 657.105469 628.171875 C 656.148438 627.382812 655.171875 626.621094 654.175781 625.886719 C 653.183594 625.148438 652.171875 624.433594 651.140625 623.746094 C 650.109375 623.058594 649.066406 622.394531 648.003906 621.761719 C 646.941406 621.125 645.863281 620.511719 644.773438 619.929688 C 643.679688 619.34375 642.574219 618.789062 641.453125 618.257812 C 640.335938 617.730469 639.203125 617.226562 638.058594 616.753906 C 636.914062 616.28125 635.761719 615.835938 634.59375 615.417969 C 633.429688 615 632.253906 614.613281 631.066406 614.253906 C 629.882812 613.894531 628.691406 613.5625 627.488281 613.261719 C 626.289062 612.960938 625.078125 612.691406 623.863281 612.449219 C 622.652344 612.207031 621.429688 611.996094 620.207031 611.8125 C 618.980469 611.632812 617.753906 611.480469 616.519531 611.359375 C 615.289062 611.238281 614.054688 611.148438 612.816406 611.085938 C 611.578125 611.027344 610.339844 610.996094 609.101562 610.996094 Z M 609.101562 610.996094 " fill-opacity="1" fill-rule="nonzero"/></svg>